<?xml version="1.0" standalone="no"?>
<!DOCTYPE svg PUBLIC "-//W3C//DTD SVG 20010904//EN"
 "http://www.w3.org/TR/2001/REC-SVG-20010904/DTD/svg10.dtd">
<svg version="1.0" xmlns="http://www.w3.org/2000/svg"
 width="478.000000pt" height="120.000000pt" viewBox="0 0 478.000000 120.000000"
 preserveAspectRatio="xMidYMid meet">

<g transform="translate(0.000000,120.000000) scale(0.100000,-0.100000)"
fill="#000000" stroke="none">
<path d="M765 980 l220 -220 3 132 3 132 -88 88 -88 88 -135 0 -135 0 220
-220z"/>
<path d="M1665 1130 l59 -60 -39 -40 -39 -40 62 0 63 0 -3 98 -3 97 -80 3 -80
3 60 -61z"/>
<path d="M440 765 l165 -165 -65 -65 -64 -65 82 0 82 0 0 178 0 178 -53 52
-53 52 -129 0 -130 0 165 -165z"/>
<path d="M2048 917 c-93 -27 -138 -78 -138 -160 0 -92 45 -133 192 -171 71
-19 92 -34 86 -62 -8 -43 -122 -28 -211 26 l-47 29 -29 -62 -28 -62 21 -17
c63 -52 241 -84 333 -59 80 22 133 86 133 161 0 84 -42 127 -162 165 -101 32
-118 41 -118 65 0 33 43 35 123 8 40 -14 79 -28 88 -32 12 -5 21 7 42 56 15
34 23 66 19 70 -4 4 -34 17 -64 28 -75 26 -180 33 -240 17z"/>
<path d="M1640 645 l0 -275 80 0 80 0 0 275 0 275 -80 0 -80 0 0 -275z"/>
<path d="M2410 645 l0 -275 85 0 85 0 0 68 c1 58 4 71 29 101 l27 33 65 -101
64 -101 98 0 c76 0 96 3 91 13 -5 6 -49 75 -99 152 -50 77 -94 145 -98 152 -4
6 32 54 88 116 52 58 95 108 95 111 0 3 -42 6 -92 6 l-93 -1 -85 -98 -85 -99
-3 99 -3 99 -84 0 -85 0 0 -275z"/>
<path d="M3120 653 c-62 -148 -115 -272 -117 -276 -3 -4 35 -6 83 -5 l87 3 15
43 14 43 111 -3 110 -3 15 -42 14 -43 89 0 89 0 -18 43 c-9 24 -60 148 -112
275 l-95 232 -86 0 -86 0 -113 -267z m235 -10 l23 -63 -65 0 c-58 0 -64 2 -58
18 4 9 18 48 33 86 28 77 22 81 67 -41z"/>
<path d="M3700 645 l0 -275 195 0 195 0 0 70 0 70 -115 0 -115 0 0 205 0 205
-80 0 -80 0 0 -275z"/>
<path d="M4372 903 c-16 -31 -222 -519 -222 -526 0 -4 36 -7 80 -7 l81 0 19
45 19 45 109 0 108 0 15 -42 16 -43 86 -3 c48 -1 87 0 87 3 0 3 -48 122 -106
263 -58 141 -108 263 -111 270 -4 8 -31 12 -89 12 -69 0 -85 -3 -92 -17z m122
-247 c14 -37 26 -70 26 -72 0 -2 -27 -4 -60 -4 -33 0 -60 3 -60 8 0 22 54 152
61 145 4 -4 19 -39 33 -77z"/>
<path d="M930 665 l-54 -55 57 0 57 0 0 55 c0 30 -1 55 -3 55 -1 0 -27 -25
-57 -55z"/>
<path d="M225 440 l220 -220 3 127 3 127 -93 93 -93 93 -130 0 -130 0 220
-220z"/>
<path d="M1670 145 l0 -85 49 0 c34 0 56 6 72 19 23 19 24 21 7 50 -10 18 -13
33 -7 36 14 9 11 32 -7 49 -10 10 -33 16 -65 16 l-49 0 0 -85z m98 53 c18 -18
-5 -38 -44 -38 -30 0 -34 3 -34 25 0 22 4 25 33 25 18 0 38 -5 45 -12z m7 -88
c0 -22 -5 -25 -42 -28 -42 -3 -43 -2 -43 28 0 30 1 31 43 28 37 -3 42 -6 42
-28z"/>
<path d="M1870 161 c0 -61 3 -72 22 -85 30 -21 61 -20 88 2 17 14 23 32 27 85
5 58 3 67 -11 67 -13 0 -16 -11 -16 -63 0 -67 -10 -87 -45 -87 -35 0 -45 20
-45 87 0 35 -4 63 -10 63 -6 0 -10 -30 -10 -69z"/>
<path d="M2088 219 c-33 -19 -16 -79 22 -79 8 0 26 -7 38 -16 18 -13 21 -19
11 -30 -14 -17 -60 -19 -76 -3 -8 8 -13 8 -17 0 -7 -12 32 -31 62 -31 30 0 63
30 60 53 -2 15 -16 26 -48 38 -31 12 -45 22 -45 35 0 16 7 19 43 18 42 -1 55
9 26 20 -23 9 -57 7 -76 -5z"/>
<path d="M2250 145 c0 -50 4 -85 10 -85 6 0 10 35 10 85 0 50 -4 85 -10 85 -6
0 -10 -35 -10 -85z"/>
<path d="M2350 146 c0 -98 17 -118 22 -26 l3 61 45 -60 c25 -33 51 -61 58 -61
9 0 12 24 12 85 0 69 -3 85 -15 85 -12 0 -15 -14 -15 -62 l0 -61 -46 59 c-25
32 -50 61 -55 62 -5 2 -9 -35 -9 -82z"/>
<path d="M2560 145 l0 -85 60 0 c33 0 60 4 60 10 0 6 -22 10 -50 10 -49 0 -50
1 -50 30 0 29 2 30 45 30 25 0 45 5 45 10 0 6 -20 10 -45 10 -41 0 -45 2 -45
25 0 23 3 25 50 25 28 0 50 5 50 10 0 6 -27 10 -60 10 l-60 0 0 -85z"/>
<path d="M2750 212 c-33 -27 -19 -57 33 -75 30 -10 42 -19 42 -33 0 -23 -43
-31 -76 -14 -17 10 -20 9 -17 -2 7 -21 54 -33 86 -22 44 15 39 84 -7 84 -9 0
-27 7 -39 16 -33 23 -11 48 35 41 37 -6 54 8 20 17 -36 10 -54 7 -77 -12z"/>
<path d="M2920 212 c-33 -27 -19 -57 33 -75 30 -10 42 -19 42 -33 0 -23 -43
-31 -76 -14 -17 10 -20 9 -17 -2 7 -21 54 -33 86 -22 44 15 39 84 -7 84 -9 0
-27 7 -39 16 -33 23 -11 48 35 41 37 -6 54 8 20 17 -36 10 -54 7 -77 -12z"/>
<path d="M3176 214 c-19 -19 -21 -50 -3 -61 6 -4 28 -13 47 -18 43 -13 52 -42
15 -51 -15 -4 -37 -2 -51 5 -19 8 -24 8 -24 -4 0 -19 65 -30 96 -16 20 9 25
17 22 38 -2 22 -12 31 -48 44 -25 9 -46 24 -48 32 -4 19 31 31 64 23 26 -7 33
8 8 18 -28 11 -62 6 -78 -10z"/>
<path d="M3373 220 c-45 -19 -58 -90 -24 -131 28 -34 104 -34 132 0 24 29 25
82 2 110 -20 24 -77 35 -110 21z m87 -30 c40 -40 11 -110 -45 -110 -32 0 -65
33 -65 65 0 32 33 65 65 65 14 0 34 -9 45 -20z"/>
<path d="M3560 145 l0 -85 55 0 c30 0 55 5 55 10 0 6 -18 10 -40 10 l-40 0 0
75 c0 60 -3 75 -15 75 -12 0 -15 -16 -15 -85z"/>
<path d="M3720 165 c0 -75 20 -105 70 -105 50 0 70 30 70 105 0 37 -4 65 -10
65 -6 0 -10 -26 -10 -59 0 -63 -15 -91 -50 -91 -30 0 -50 39 -50 97 0 29 -4
53 -10 53 -6 0 -10 -28 -10 -65z"/>
<path d="M3910 220 c0 -5 11 -10 25 -10 24 0 25 -2 25 -75 0 -60 3 -75 15 -75
12 0 15 15 15 75 0 73 1 75 25 75 14 0 25 5 25 10 0 6 -28 10 -65 10 -37 0
-65 -4 -65 -10z"/>
<path d="M4090 145 c0 -69 3 -85 15 -85 12 0 15 16 15 85 0 69 -3 85 -15 85
-12 0 -15 -16 -15 -85z"/>
<path d="M4223 220 c-45 -19 -58 -90 -24 -131 28 -34 104 -34 132 0 24 29 25
82 2 110 -20 24 -77 35 -110 21z m87 -30 c40 -40 11 -110 -45 -110 -32 0 -65
33 -65 65 0 32 33 65 65 65 14 0 34 -9 45 -20z"/>
<path d="M4410 145 c0 -98 18 -116 22 -23 l3 63 49 -63 c27 -34 53 -62 57 -62
5 0 9 38 9 85 0 97 -18 116 -22 24 l-3 -62 -48 62 c-27 33 -53 61 -58 61 -5 0
-9 -38 -9 -85z"/>
<path d="M4638 219 c-33 -19 -16 -79 22 -79 8 0 26 -7 38 -16 18 -13 21 -19
11 -30 -14 -17 -60 -19 -76 -3 -8 8 -13 8 -17 0 -7 -12 32 -31 62 -31 30 0 63
30 60 53 -2 15 -16 26 -48 38 -31 12 -45 22 -45 35 0 16 7 19 43 18 42 -1 55
9 26 20 -23 9 -57 7 -76 -5z"/>
<path d="M385 120 l-59 -60 62 0 62 0 0 60 c0 33 -1 60 -3 60 -1 0 -29 -27
-62 -60z"/>
</g>
</svg>
